<?xml version="1.0" standalone="no"?><!DOCTYPE svg PUBLIC "-//W3C//DTD SVG 1.1//EN" "http://www.w3.org/Graphics/SVG/1.1/DTD/svg11.dtd"><svg t="1746363121538" class="icon" viewBox="0 0 1024 1024" version="1.1" xmlns="http://www.w3.org/2000/svg" p-id="6020" xmlns:xlink="http://www.w3.org/1999/xlink" width="200" height="200"><path d="M834.92343108 757.1317136c0 82.80958192-1.44238002 84.25196194-77.04006185 84.25196192h-492.95458083c-85.60949605 0-85.43980429 2.20599296-85.43980429-75.08860656l-0.08484587-491.51220082c0-78.05821245 0-76.70067833 85.60949606-76.7006783h286.69423899V153.02902589H262.55310368C155.73213684 153.02902589 133.84189901 167.28313426 133.84189901 274.61317637v490.23951259c0 121.41445873 21.89023784 121.4993046 128.79605055 121.4993046h497.7059503c106.90581271 0 120.48115402-22.48415902 120.481154-129.89904703V490.20656536h-45.81677688l-0.0848459 266.92514824z" p-id="6021"></path><path d="M876.41306794 209.28184638l-65.50102176-65.50102175c-21.38116254-21.38116254-40.81086979-21.38116254-62.19203232 0l-377.56417981 376.71572097c-0.59392119 0.59392119-1.10299649 1.10299649-1.52722589 1.69691768-3.47868122 2.71506826-6.10890359 6.53313301-7.29674595 11.11481067l-16.62979308 105.20889506c-3.22414357 11.53904009 3.5635271 23.41746374 15.10256719 26.55676141 2.46053061 0.67876706 4.92106122 0.93330471 7.38159183 0.76361296 1.78176355 0.16969177 3.5635271 0.08484589 5.4301365-0.25453766L491.3824504 651.75312679c5.34529065-0.93330471 9.84212244-3.81806475 13.06626601-7.72097538 0.59392119-0.5090753 1.27268825-1.0181506 1.78176354-1.61207178l370.18258799-370.94620091c21.29631666-21.38116254 21.29631666-40.81086979-1e-8-62.19203234z m-407.59962244 406.41178009L398.30651665 627.0629748s-7.97551302 1.86660942-11.28450247-1.69691767c-2.46053061-2.79991416 0.67876706-9.75727655 0.67876708-9.75727655l17.56309779-62.02234056 63.54956645 62.10718645z m32.32628147-32.2414356L436.48716402 520.41169973l264.46461766-262.25862468 63.80410408 62.19203233-263.61615879 263.1070835z m337.09269357-336.49877237l-41.31994508 41.23509917-63.63441234-62.10718642 42.16840395-41.82902038c4.49683181-4.49683181 11.79357776-4.49683181 16.29040953 0l46.49554394 46.49554394c4.49683181 4.49683181 4.49683181 11.70873187 0 16.20556369z" p-id="6022"></path></svg>