<?xml version="1.0" standalone="no"?><!DOCTYPE svg PUBLIC "-//W3C//DTD SVG 1.1//EN" "http://www.w3.org/Graphics/SVG/1.1/DTD/svg11.dtd"><svg t="1746100708984" class="icon" viewBox="0 0 1024 1024" version="1.1" xmlns="http://www.w3.org/2000/svg" p-id="3488" xmlns:xlink="http://www.w3.org/1999/xlink" width="200" height="200"><path d="M312.96 496.64a15.36 15.36 0 0 0 11.52 4.48 16 16 0 0 0 11.52-5.76l78.72-93.44v413.44a16 16 0 0 0 16 16h54.4a16 16 0 0 0 16-16V576h23.04v240.64a16 16 0 0 0 16 16h54.4a16 16 0 0 0 16-16V401.92L691.84 496a16 16 0 0 0 23.04 0l38.4-39.04a16 16 0 0 0 0-21.76L640 308.48a128 128 0 0 0-92.8-41.6h-70.4a128 128 0 0 0-92.8 41.6l-113.28 128a16 16 0 0 0 0 21.76zM423.04 154.88a89.6 88.96 90 1 0 177.92 0 89.6 88.96 90 1 0-177.92 0z" p-id="3489"></path><path d="M960 768c0-78.72-102.4-144-274.56-174.72a32 32 0 1 0-10.88 64C819.84 682.24 896 732.16 896 768c0 49.92-148.48 121.6-384 128-234.88-6.4-384-77.44-384-128 0-35.84 76.16-85.76 222.08-112a32 32 0 1 0-10.88-64C167.04 624 64 689.28 64 768c0 110.72 195.84 176.64 403.2 192a439.68 439.68 0 0 0 44.8 0 440.32 440.32 0 0 0 44.8 0C764.16 944.64 960 878.72 960 768z" p-id="3490"></path><path d="M896 64h32.64a29.44 29.44 0 0 1 29.44 29.44v668.8a30.72 30.72 0 0 1-30.72 30.72 30.72 30.72 0 0 1-30.72-30.72V64H896z" p-id="3491"></path><path d="M803.84 64h149.12v44.8H803.84V64zM803.84 540.8h149.12v44.8H803.84v-44.8zM803.84 302.72h149.12v44.8H803.84v-44.8z" p-id="3492"></path></svg>