<?xml version="1.0" standalone="no"?><!DOCTYPE svg PUBLIC "-//W3C//DTD SVG 1.1//EN" "http://www.w3.org/Graphics/SVG/1.1/DTD/svg11.dtd"><svg t="1746412280899" class="icon" viewBox="0 0 1024 1024" version="1.1" xmlns="http://www.w3.org/2000/svg" p-id="7831" xmlns:xlink="http://www.w3.org/1999/xlink" width="200" height="200"><path d="M924.672 888.576H111.616a30.72 30.72 0 0 1-30.72-30.72v-563.2a30.72 30.72 0 0 1 30.72-30.72h198.4l25.6-99.328a30.72 30.72 0 0 1 29.696-23.04h305.152a30.72 30.72 0 0 1 29.696 23.04l25.6 99.328h198.4a30.72 30.72 0 0 1 30.72 30.72v563.2a30.72 30.72 0 0 1-30.208 30.72zM142.336 826.88h751.616V325.376h-191.488a30.72 30.72 0 0 1-29.696-23.04l-25.6-99.328h-256l-25.6 99.328a30.72 30.72 0 0 1-29.696 23.04H142.336z" fill="" p-id="7832"></path><path d="M515.84 722.944a185.344 185.344 0 0 1-25.6-2.048 181.248 181.248 0 0 1-83.2-324.864 25.6 25.6 0 0 1 30.72 40.96 130.048 130.048 0 1 0 184.32 179.2 25.6 25.6 0 0 1 41.728 29.44 181.76 181.76 0 0 1-147.712 76.8z" fill="" p-id="7833"></path><path d="M524.66121 385.889067m-24.826106 18.525038a30.976 30.976 0 1 0 49.652212-37.050076 30.976 30.976 0 1 0-49.652212 37.050076Z" fill="" p-id="7834"></path><path d="M618.936471 425.051735m-24.826107 18.525038a30.976 30.976 0 1 0 49.652213-37.050076 30.976 30.976 0 1 0-49.652213 37.050076Z" fill="" p-id="7835"></path><path d="M669.875326 517.759438m-24.826106 18.525038a30.976 30.976 0 1 0 49.652212-37.050076 30.976 30.976 0 1 0-49.652212 37.050076Z" fill="" p-id="7836"></path></svg>