<?xml version="1.0" standalone="no"?><!DOCTYPE svg PUBLIC "-//W3C//DTD SVG 1.1//EN" "http://www.w3.org/Graphics/SVG/1.1/DTD/svg11.dtd"><svg t="1745666017633" class="icon" viewBox="0 0 1024 1024" version="1.1" xmlns="http://www.w3.org/2000/svg" p-id="2595" xmlns:xlink="http://www.w3.org/1999/xlink" width="200" height="200"><path d="M498.3808 206.848l-0.0256 318.72h319.6416v7.68c0 178.4832-148.3264 326.4-327.296 326.4-178.9696 0-327.3216-147.9168-327.3216-326.4 0-175.8976 144.0768-322.1248 319.5392-326.3232l7.7824-0.1024h7.68z m-58.0096 63.5904l-5.12 1.024c-122.7776 26.4704-213.888 135.7312-213.888 261.7856 0 148.736 120.1408 268.544 269.312 268.544 126.464 0 236.0064-90.8544 262.528-213.2736l1.024-5.0944H490.7008c-28.4672 0-48.4352-18.6112-50.176-46.1824l-0.128-3.9936-0.0256-262.8096z m114.2528-106.112c167.808 0 301.824 131.072 305.92 297.344l0.0768 7.8336v7.68H546.944V164.352h7.68z m50.2784 63.616v191.36h191.9232l-1.024-4.992c-20.3776-91.8272-93.7216-164.9664-185.8304-185.3184l-5.0688-1.0496z" fill="#515151" p-id="2596"></path></svg>