<?xml version="1.0" standalone="no"?><!DOCTYPE svg PUBLIC "-//W3C//DTD SVG 1.1//EN" "http://www.w3.org/Graphics/SVG/1.1/DTD/svg11.dtd"><svg t="1745665601389" class="icon" viewBox="0 0 1069 1024" version="1.1" xmlns="http://www.w3.org/2000/svg" p-id="2148" xmlns:xlink="http://www.w3.org/1999/xlink" width="208.7890625" height="200"><path d="M969.200221 1024H100.718214C45.162576 1024 0 978.837424 0 923.281786v-712.397121c0-55.555638 45.162576-100.718214 100.718214-100.718214h65.19284c15.684075 0 28.344713 12.660638 28.344713 28.344713s-12.660638 28.344713-28.344713 28.344713H100.718214C76.34176 166.855877 56.689426 186.508212 56.689426 210.884665v712.397121c0 24.187488 19.652334 44.028788 44.028788 44.028788h868.482007c24.376453 0 44.028788-19.652334 44.028788-44.028788v-712.397121c0-24.376453-19.652334-44.028788-44.028788-44.028788h-61.602509c-15.684075 0-28.344713-12.660638-28.344713-28.344713s12.660638-28.344713 28.344713-28.344713h61.602509c55.555638 0 100.718214 45.162576 100.718214 100.718214v712.397121c0 55.555638-45.162576 100.718214-100.718214 100.718214z" p-id="2149"></path><path d="M688.587562 166.855877H381.519838c-15.684075 0-28.344713-12.660638-28.344713-28.344713s12.660638-28.344713 28.344713-28.344713h307.067724c15.684075 0 28.344713 12.660638 28.344713 28.344713s-12.660638 28.344713-28.344713 28.344713zM254.535523 232.804576c-15.684075 0-28.344713-12.660638-28.344713-28.344713V28.344713c0-15.684075 12.660638-28.344713 28.344713-28.344713s28.344713 12.660638 28.344713 28.344713v176.11515c0 15.684075-12.660638 28.344713-28.344713 28.344713zM815.382912 232.804576c-15.684075 0-28.344713-12.660638-28.344713-28.344713V28.344713c0-15.684075 12.660638-28.344713 28.344713-28.344713s28.344713 12.660638 28.344713 28.344713v176.11515c0 15.684075-12.660638 28.344713-28.344713 28.344713zM1034.582026 391.53497H133.97601c-15.684075 0-28.344713-12.660638-28.344713-28.344713s12.660638-28.344713 28.344713-28.344714h900.606016c15.684075 0 28.344713 12.660638 28.344713 28.344714s-12.660638 28.344713-28.344713 28.344713z" p-id="2150"></path></svg>