<?xml version="1.0" standalone="no"?><!DOCTYPE svg PUBLIC "-//W3C//DTD SVG 1.1//EN" "http://www.w3.org/Graphics/SVG/1.1/DTD/svg11.dtd"><svg t="1746538945518" class="icon" viewBox="0 0 1414 1024" version="1.1" xmlns="http://www.w3.org/2000/svg" p-id="6820" xmlns:xlink="http://www.w3.org/1999/xlink" width="276.171875" height="200"><path d="M459.686619 1018.635255a37.172671 37.172671 0 0 1-49.298593-9.957998c-29.382598-41.233916-78.681191-101.429941-123.7162-120.39205C194.173732 848.944612 4.65381 644.653901 11.764601 510.517212a686.509288 686.509288 0 0 0-5.694414-100.952997c-6.156904-59.256591-11.851318-115.174579 5.694414-155.469061a74.099645 74.099645 0 0 1 71.093457-44.558066 76.383191 76.383191 0 0 1 70.154023 53.085234c27.96622 86.268925 109.017675 288.651863 272.07447 384.878786a36.796898 36.796898 0 0 1 13.744639 47.405273 37.721879 37.721879 0 0 1-53.085234 15.637958C202.310674 600.572778 113.208995 379.704674 82.872511 285.848015l-4.335848-1.893321c-9.004111 22.74875-3.786641 73.46372 0.476943 118.513183a752.847764 752.847764 0 0 1 5.694414 112.341825c-4.740527 96.689413 158.316268 274.907225 230.363611 305.720652 64.936552 27.96622 124.178691 101.906884 154.992118 145.973554a35.322709 35.322709 0 0 1-10.420488 52.1458z m495.312838 0a37.172671 37.172671 0 0 0 49.298594-9.957998c29.382598-41.233916 78.681191-101.429941 123.7162-120.39205 92.498094-39.340595 282.018016-243.631307 274.907224-377.767995a686.509288 686.509288 0 0 1 5.694414-100.952997c6.156904-59.256591 11.851318-115.174579-5.694414-155.469061a74.822286 74.822286 0 0 0-71.093456-44.558066 77.467153 77.467153 0 0 0-70.630966 53.085234c-27.96622 86.268925-109.017675 288.651863-272.074471 384.878786a36.796898 36.796898 0 0 0-13.744638 47.405273 37.721879 37.721879 0 0 0 53.085234 15.637958c183.435282-109.971562 272.536961-330.839666 302.873445-424.696324l4.335848-1.893321c9.004111 22.74875 3.786641 73.46372-0.476944 118.513183a752.7755 752.7755 0 0 0-5.694413 112.341825c4.740527 96.689413-158.316268 274.907225-230.363612 305.720652-64.936552 27.96622-124.178691 101.906884-154.992118 145.973554a35.7852 35.7852 0 0 0 10.897432 52.1458z" fill="#d4237a" p-id="6821"></path><path d="M711.845094 728.090072l-22.271807-18.008223c-237.026365-188.652752-442.25651-154.515175-444.597867-154.052684l-12.328262-73.00123c9.481055-1.89332 226.085575-37.924218 478.258502 151.682421a834.029294 834.029294 0 0 1 464.022468-155.526873l0.953886 73.940664a769.33844 769.33844 0 0 0-442.704547 155.946004z" fill="#d4237a" p-id="6822"></path><path d="M707.58151 949.435119a37.01369 37.01369 0 0 1-36.970332-36.970332V680.684799h73.8684v231.779988a37.01369 37.01369 0 0 1-36.970332 36.970332z m2.890565-384.445201a69.37357 69.37357 0 0 1-43.604179-15.637959c-52.131347-41.233916-178.694754-151.205477-223.25282-282.971902a228.87497 228.87497 0 0 1 8.527168-171.988643 156.813174 156.813174 0 0 1 119.958465-91.948886 132.720311 132.720311 0 0 1 97.166356 22.74875 194.245996 194.245996 0 0 1 35.553955 32.706747A170.716794 170.716794 0 0 1 778.761684 6.229168a128.297746 128.297746 0 0 1 106.170468 12.790752c49.775537 20.85543 127.979784 91.948886 86.716962 223.252821a302.700011 302.700011 0 0 1-29.859541 63.520175c-41.233916 67.783759-120.39205 189.592186-189.115242 244.570741a69.113419 69.113419 0 0 1-42.187803 14.698525zM592.869421 74.937909a85.791982 85.791982 0 0 0-76.78787 53.085234 155.049929 155.049929 0 0 0-5.217471 114.177334c37.924218 112.804316 151.682421 211.401502 198.596298 248.371834 63.520175-50.238027 147.418837-184.374716 171.583963-224.192254a190.387092 190.387092 0 0 0 22.271807-47.405273c31.290371-98.120243-38.386709-128.456727-46.451387-131.766425l-5.21747-2.370264a61.381157 61.381157 0 0 0-52.145801-7.587734 114.928881 114.928881 0 0 0-58.302704 54.039121 40.164407 40.164407 0 0 1-36.016445 24.179579 44.962745 44.962745 0 0 1-37.924219-23.225693v-0.476943a122.574427 122.574427 0 0 0-38.863652-45.035009 55.455498 55.455498 0 0 0-35.553954-11.851319z m84.838095 23.225693z" fill="#d4237a" p-id="6823"></path></svg>