<?xml version="1.0" standalone="no"?><!DOCTYPE svg PUBLIC "-//W3C//DTD SVG 1.1//EN" "http://www.w3.org/Graphics/SVG/1.1/DTD/svg11.dtd"><svg t="1745665208304" class="icon" viewBox="0 0 1024 1024" version="1.1" xmlns="http://www.w3.org/2000/svg" p-id="964" xmlns:xlink="http://www.w3.org/1999/xlink" width="200" height="200"><path d="M0 0h1024v1024H0z" fill="#D8D8D8" fill-opacity="0" p-id="965"></path><path d="M871.936 999.424H152.064C87.04 999.424 34.816 947.2 34.816 882.176V368.64c0-39.424 19.456-75.776 52.224-97.792L446.976 30.72C486.4 4.096 537.6 4.096 577.024 30.72L936.96 271.36c32.768 22.016 52.224 58.368 52.224 97.792v513.536c0 64.512-52.224 116.736-117.248 116.736zM122.368 324.608c-14.848 9.728-24.064 26.112-24.064 44.032v513.536c0 29.184 24.064 53.248 53.248 53.248h720.384c29.184 0 53.248-24.064 53.248-53.248V368.64c0-17.92-8.704-34.304-23.552-44.544l-359.936-240.64c-17.92-11.776-41.472-11.776-59.392 0L122.368 324.608z" fill="#272C47" p-id="966"></path><path d="M514.56 819.2c-64 0-128-23.04-181.76-69.12-17.408-14.848-20.48-42.496-7.168-61.952 13.312-19.456 37.888-23.04 54.784-8.192 78.848 68.096 188.928 68.096 267.776 0.512 17.408-14.848 41.984-11.264 55.296 8.192 13.312 19.456 10.24 46.592-7.168 61.44-53.76 46.08-117.76 69.12-181.76 69.12z" fill="#1989FA" p-id="967"></path></svg>