<?xml version="1.0" standalone="no"?><!DOCTYPE svg PUBLIC "-//W3C//DTD SVG 1.1//EN" "http://www.w3.org/Graphics/SVG/1.1/DTD/svg11.dtd"><svg t="1745672432116" class="icon" viewBox="0 0 1024 1024" version="1.1" xmlns="http://www.w3.org/2000/svg" p-id="2164" xmlns:xlink="http://www.w3.org/1999/xlink" width="200" height="200"><path d="M542.942264 371.021395l-0.301644-0.301643c-107.877209-102.288868-243.616744-61.170109-296.825054 13.43107-39.094574 54.819721-45.611659 133.993178 2.262325 201.037395 87.563907 122.649798 294.864372 279.504372 294.864373 279.504372s207.292527-156.854574 294.864372-279.496434c47.866047-67.044217 41.356899-146.225612 2.254387-201.045333-53.200372-74.601178-188.947845-115.719938-296.825054-13.43107l-0.293705 0.309581z" fill="#FFCB01" p-id="2165"></path><path d="M512.82555 185.510698c-145.20955-124.348527-318.392558-62.075039-388.405581 42.944496-54.041798 81.062698-63.40862 198.132093 2.754481 297.261643 108.678946 162.823938 365.671194 371.323039 365.671193 371.323039l19.979907 16.169674 19.971969-16.169674s257.000186-208.499101 365.679132-371.323039c66.163101-99.12955 56.796279-216.198946 2.762419-297.253705-70.013023-105.027473-243.211907-167.300961-388.405582-42.944496z m317.257427 327.187845C738.875535 637.499535 571.868279 781.748589 513.587597 830.535442a23.893333 23.893333 0 0 1-1.508217 0c-57.971101-48.516961-223.398698-191.40862-314.963349-315.725395h188.527132l43.325519-69.08428 65.305799 136.707969a32.013891 32.013891 0 0 0 29.132403 18.400248h0.103194a31.910698 31.910698 0 0 0 29.132403-18.614573l47.842232-96.954543 13.042109 27.338419 216.564093 0.095256z m-340.222016-261.834419l22.909023 24.036217 23.028094-24.036217c113.576682-115.203969 256.587411-71.203721 312.605767 12.827783 36.205147 54.31169 45.643411 129.833674 13.177054 198.640124H647.501395l-20.305364-42.372961c-4.937426-10.414636-15.24093-16.511008-27.028837-17.042853a30.108775 30.108775 0 0 0-26.909768 17.24924l-50.064868 101.685582-62.884713-131.754667c-5.151752-10.835349-15.55845-18.932093-27.544806-19.352806-11.470388-0.420713-21.567504 5.04062-27.457489 14.510636l-48.580465 77.292155H164.165457c-32.56955-68.869953-23.163039-144.487194 13.081799-198.85445 56.018357-84.023566 199.029085-128.03969 312.605767-12.827783z" p-id="2166"></path></svg>