<?xml version="1.0" standalone="no"?><!DOCTYPE svg PUBLIC "-//W3C//DTD SVG 1.1//EN" "http://www.w3.org/Graphics/SVG/1.1/DTD/svg11.dtd"><svg t="1745665518688" class="icon" viewBox="0 0 1024 1024" version="1.1" xmlns="http://www.w3.org/2000/svg" p-id="23931" xmlns:xlink="http://www.w3.org/1999/xlink" width="200" height="200"><path d="M512 106.666667a64 64 0 0 0-58.709333 38.4l-11.178667 25.6H192v682.666666h640V170.666667h-250.112l-11.178667-25.6A64 64 0 0 0 512 106.666667zM389.461333 85.333333A149.162667 149.162667 0 0 1 512 21.333333c50.773333 0 95.573333 25.344 122.538667 64H917.333333v853.333334h-810.666666V85.333333h282.794666z m363.946667 323.669334l-301.738667 301.653333-180.992-180.992L331.008 469.333333l120.661333 120.704 241.365334-241.365333 60.330666 60.330667z" p-id="23932"></path></svg>