<?xml version="1.0" standalone="no"?><!DOCTYPE svg PUBLIC "-//W3C//DTD SVG 1.1//EN" "http://www.w3.org/Graphics/SVG/1.1/DTD/svg11.dtd"><svg t="1745665067725" class="icon" viewBox="0 0 1024 1024" version="1.1" xmlns="http://www.w3.org/2000/svg" p-id="1510" xmlns:xlink="http://www.w3.org/1999/xlink" width="200" height="200"><path d="M256 480h192v320H256z" fill="#E0EBFE" p-id="1511"></path><path d="M576 0h-128a32 32 0 0 0-32 32v114.88L301.6 263.104C252.992 315.2 224 386.912 224 455.04V928c0 52.928 37.344 96 83.2 96h409.6c45.888 0 83.2-43.072 83.2-96V455.04c0-68.16-28.992-139.872-78.176-192.544L608 146.88V32a32 32 0 0 0-32-32zM288 512h128v256H288v-256z m387.616-205.216C713.44 347.296 736 402.688 736 455.04V928c0 18.304-10.144 32-19.2 32H307.2c-9.056 0-19.2-13.696-19.2-32v-96h160a32 32 0 0 0 32-32V480a32 32 0 0 0-32-32H288.384c1.92-50.24 23.84-102.496 59.392-140.608l123.008-124.928A31.936 31.936 0 0 0 480 160V64h64v96c0 8.416 3.296 16.48 9.216 22.464l122.4 124.32z" fill="#5465CF" p-id="1512"></path></svg>